<svg width="131" height="100" viewBox="0 0 131 100" fill="none" xmlns="http://www.w3.org/2000/svg">
<path d="M70.8328 98.8701C57.3438 98.8701 44.545 95.4174 34.9459 89.0772C31.4324 86.8173 28.4837 84.1808 26.1623 81.3559C22.5862 80.791 19.4492 79.5982 16.7514 77.7778C6.0857 77.2756 3.51338 68.6127 3.0742 66.855C1.44298 60.2009 4.45447 55.2417 5.20735 54.1117C5.4583 53.6723 6.3994 51.9146 7.52871 50.8475L7.71692 50.7219L7.8424 50.6591C8.03062 50.5336 8.59528 49.9686 9.15993 49.4036C9.15993 48.2737 9.09719 46.0766 9.22267 45.4488C9.85007 40.3013 11.3558 38.9203 12.9243 38.2298C12.987 38.167 13.1125 38.0414 13.1753 37.9787C13.6772 37.3509 14.6183 36.221 16.3122 35.9071C17.4415 34.4633 19.0728 33.9611 19.7629 33.8355C19.9511 33.7728 20.2021 33.7728 20.5158 33.7728C21.7706 33.7728 23.841 34.2122 24.6566 34.4633C26.0996 34.4633 27.7936 34.7144 28.9229 36.0954C29.8012 36.9743 31.1187 39.1086 30.805 41.0546C31.1815 41.4313 31.4324 41.8707 31.7461 42.2473L31.8089 42.3101C32.8127 41.494 33.8793 40.7407 35.0086 39.9874C36.7653 38.8575 38.6475 37.7903 40.5924 36.7859C40.5297 36.0954 40.5924 35.4677 40.8434 34.9027C39.965 34.526 39.0239 33.8983 38.8984 32.6428C38.8357 31.7012 39.1494 31.0107 39.5258 30.6968C39.7768 30.3829 40.1532 30.1318 40.4669 30.0063C39.3376 29.6296 38.271 29.1902 37.6436 28.8763C35.636 27.8092 34.5067 26.0515 34.5067 23.8544C34.5067 21.4689 35.8869 18.8952 38.0201 17.2003C37.5809 16.6353 37.1417 15.9448 36.9535 15.1915C35.8242 10.6717 37.3927 8.6629 38.0828 7.84683C38.1456 7.78406 38.2083 7.72128 38.2083 7.65851C38.7102 6.71689 41.7217 4.08035 43.2275 3.38983C45.0469 2.57376 47.431 1.69492 51.3209 1.50659C51.5718 1.50659 51.76 1.50659 52.011 1.50659C55.5244 1.50659 61.6101 2.69931 63.3041 3.26428C64.057 3.38983 64.8726 3.57815 65.6255 3.7037C66.0019 3.76648 66.3783 3.89203 66.7548 3.9548L66.943 4.01758H67.0057C67.4449 4.08035 69.1389 4.39423 75.9775 5.39862L76.3539 5.46139C76.5421 5.46139 76.7931 5.52417 77.1068 5.58694C78.8007 5.77527 80.4947 6.02637 81.4358 6.27746C82.4396 6.52856 83.7572 6.90521 84.3846 7.21908C85.0119 7.47018 86.204 8.34903 86.7686 9.03955C87.3333 9.79284 87.898 11.1111 88.0234 12.0527C88.1489 12.9944 88.0862 14.3126 87.647 15.2542C87.0196 16.6981 85.8276 17.6397 84.6982 18.4557C84.6982 18.8952 84.6355 19.2718 84.5728 19.6485C84.761 20.904 85.953 25.9259 86.5177 27.307C87.5215 29.8807 89.4037 31.0107 90.8467 31.0107C91.2859 31.0107 91.976 30.8851 92.4779 30.2574L92.9799 29.5669L93.7955 29.7552C93.9209 29.7552 94.4856 29.9435 94.9248 30.1946L95.5522 30.5712V31.3245C95.5522 32.3289 95.364 33.3333 95.0503 34.2122C97.4971 35.091 99.8185 36.0954 102.014 37.2254C102.454 36.8487 102.893 36.4721 103.269 36.2837C103.144 34.7771 102.893 32.8311 102.516 31.6384C100.634 31.2618 98.3127 29.8807 97.4971 28.7508C97.0579 28.1858 96.807 27.5581 96.556 27.0559C96.4933 27.0559 96.4305 27.0559 96.305 27.0559C95.364 27.0559 92.227 26.6792 91.7878 22.0339C91.6623 20.5901 91.9133 19.2718 92.5407 18.393C92.4152 16.1331 93.67 14.752 94.6111 14.1243C96.1796 10.9228 98.6891 10.0439 99.8812 9.85562C100.634 9.03955 102.391 7.59573 105.277 7.59573C107.033 7.59573 108.978 8.1607 110.986 9.22787C114.876 11.2994 115.441 18.2046 115.441 21.0295C115.692 21.0923 115.943 21.1551 116.131 21.1551C118.264 21.72 119.895 24.4821 121.903 27.9975C123.597 30.9479 125.542 34.2122 127.988 36.6604L128.553 37.2254L128.365 37.9787C127.988 39.4225 127.047 41.1802 125.855 42.624C126.545 44.9466 128.239 51.9146 126.734 58.0665C126.044 60.8914 124.475 63.0257 122.028 64.5323C122.028 73.8857 116.57 82.6114 106.72 89.0772C97.0579 95.4174 84.3218 98.8701 70.8328 98.8701Z" fill="white"/>
<path d="M38.773 19.7112C37.8946 19.209 36.0752 17.3885 35.5733 15.5053C34.3185 10.3578 36.2007 7.97235 36.9535 7.0935L37.0163 7.03073C37.8319 5.71246 40.9689 3.07593 42.6001 2.32263C44.545 1.44379 47.0546 0.502167 51.1326 0.313843C51.3836 0.313843 51.6346 0.313843 51.8855 0.313843C55.5244 0.313843 61.6101 1.50656 63.4923 2.07153C64.3079 2.19708 65.1235 2.38541 65.8137 2.51096C66.2529 2.57373 66.5665 2.69928 66.943 2.76205L67.3194 2.82483H67.3822C67.9468 2.95038 69.8917 3.26425 76.2284 4.1431H76.4166C76.5421 4.1431 76.7931 4.20587 77.044 4.20587H77.1695C78.8635 4.39419 80.6202 4.64529 81.624 4.89639C82.1259 5.02194 83.8826 5.52414 84.8237 5.90079C85.5139 6.21466 86.9569 7.15628 87.647 8.0979C88.3371 9.03952 88.9645 10.5461 89.1528 11.7388C89.2782 12.806 89.2155 14.4381 88.7136 15.5681C87.898 17.5141 86.0785 18.7696 84.8237 19.6484L83.8826 20.2762L82.8788 20.0879C81.3103 19.8368 79.4909 18.7696 78.8635 16.9491C78.2361 16.6353 77.4832 16.2586 76.9813 16.0703C74.4717 15.1914 71.523 14.5009 70.2682 14.3754C68.6997 14.187 63.6805 13.8732 60.3553 13.8732H58.9751L58.3477 13.2454L57.9712 13.7476L57.0929 13.9359C53.8932 14.6892 52.262 15.5681 51.3836 16.0703C51.1326 16.1958 50.9444 16.3214 50.8189 16.3842L50.4425 16.5725L50.0661 16.6353C44.4823 17.5769 41.5962 19.5229 41.5335 19.5229L40.216 20.4645L38.773 19.7112Z" fill="white"/>
<path d="M83.1298 18.958L82.6279 18.8952C81.6868 18.7697 80.0555 18.0792 79.6164 16.447L79.5536 16.2587C78.8007 15.8193 77.6714 15.2543 76.9813 15.0032C74.3462 14.0616 71.3348 13.3711 69.9545 13.2455C68.386 13.0572 63.2414 12.7433 59.9162 12.6805H59.2888L58.9123 12.1156C58.7241 11.8645 58.4104 11.8645 58.2222 11.8645C57.7203 11.8645 57.2811 12.1156 57.1556 12.2411L56.9047 12.555L56.4655 12.6178C53.0776 13.4338 51.3836 14.3127 50.3798 14.8777C50.1915 15.0032 50.0033 15.066 49.8151 15.1915L49.6269 15.2543H49.4387C43.4157 16.2587 40.4042 18.3303 40.4042 18.393L39.7768 18.8325L39.0867 18.4558C38.522 18.1419 36.9535 16.6353 36.5771 15.1288C35.4478 10.7345 37.0163 8.78851 37.7064 7.97244C37.7691 7.90967 37.8319 7.84689 37.8319 7.78412C38.3338 6.8425 41.3453 4.26874 42.851 3.51544C44.6705 2.69937 46.9918 1.82053 50.8817 1.6322C51.1326 1.6322 51.3209 1.6322 51.5718 1.6322C55.0852 1.6322 61.2337 2.82492 62.8649 3.32712C63.6178 3.45267 64.4334 3.64099 65.1863 3.76654C65.5627 3.82931 65.9392 3.95486 66.3156 4.01764L66.5038 4.08041H66.5665C66.943 4.14319 68.5115 4.45706 75.7265 5.46146H75.9147C76.103 5.46146 76.3539 5.52423 76.6676 5.587C78.3616 5.77533 80.0555 6.02643 80.9966 6.27753C82.0005 6.52862 83.318 6.90527 83.9454 7.21915C84.5728 7.47024 85.7648 8.28631 86.2667 9.03961C86.8314 9.79291 87.3333 11.0484 87.4588 11.99C87.5843 12.8689 87.5215 14.2499 87.1451 15.1288C86.455 16.6981 84.9492 17.7653 83.6944 18.6441L83.6317 18.7069L83.1298 18.958Z" fill="black"/>
<path d="M80.8084 16.1331C80.9966 16.0703 81.0593 15.8192 80.7456 15.5681C79.9928 14.9404 78.2361 14.1243 77.3577 13.8104C74.6599 12.806 71.5229 12.1783 70.0799 11.99C68.386 11.8016 63.2413 11.4878 59.9161 11.425C59.0378 10.1695 56.8419 10.5461 56.1518 11.425C51.9482 12.4294 50.1915 13.6221 49.2504 14.0615C42.851 15.1287 39.6513 17.3886 39.6513 17.3886C39.3376 17.2003 38.0201 16.0075 37.7691 14.8776C36.6398 10.295 38.5847 8.97678 38.8984 8.34903C39.2121 7.72129 41.9099 5.27308 43.3529 4.64533C44.7332 4.01758 46.9918 3.07596 50.9444 2.88764C54.8342 2.69931 62.363 4.45701 62.6139 4.58255C63.7433 4.77088 64.9353 5.08475 66.0646 5.27308C66.3783 5.4614 74.9109 6.65412 75.7265 6.77967C76.4794 6.90522 79.4281 7.21909 80.6202 7.53296C81.8122 7.84684 82.9415 8.16071 83.3807 8.41181C83.8199 8.60013 84.8237 9.29065 85.2629 9.85563C85.6393 10.3578 86.1412 11.425 86.204 12.2411C86.3295 12.9944 86.204 14.1243 85.953 14.752C85.3884 16.0703 84.0081 16.9492 82.8788 17.7652C82.8161 17.6397 81.1848 17.3886 80.8084 16.1331Z" fill="black"/>
<path d="M85.9531 85.6874C84.3846 85.4991 69.2644 81.8582 69.3899 82.0465C69.7663 82.6115 75.6011 85.1852 83.9454 86.2524C84.3846 86.3152 85.4512 86.1896 86.0158 85.7502C85.9531 85.813 85.8904 85.7502 85.9531 85.6874Z" fill="#1A3A67"/>
<path d="M16.5632 54.1744C17.1278 54.0489 18.3199 52.8562 18.1317 52.7934C14.932 54.3 13.3007 50.5963 12.987 50.408C12.7988 51.789 14.3673 54.5511 16.5632 54.1744Z" fill="#1A3A67"/>
<path d="M101.324 13.9359C101.073 14.2498 101.073 14.8148 101.261 14.8775C101.45 14.9403 101.701 14.752 101.889 14.6264C102.077 14.4381 102.579 13.9359 102.454 13.7476C102.265 13.4965 101.575 13.622 101.324 13.9359Z" fill="#1A3A67"/>
<path d="M126.796 37.6648C121.464 32.329 118.578 23.2894 115.566 22.4734C115.064 22.3478 113.935 22.1595 113.872 22.0967C113.998 21.0295 113.872 12.3666 110.108 10.3579C103.206 6.71692 100.258 11.0484 100.258 11.0484C100.258 11.0484 96.9952 11.0484 95.364 15.0032C94.8621 15.1915 93.2308 16.2587 93.6073 18.7069C93.1681 19.0835 92.6662 20.1507 92.8544 21.8456C93.2936 26.8676 97.1834 25.4865 97.1834 25.4865C97.1834 25.4865 97.4971 26.9304 98.25 27.9348C99.0029 28.9391 101.701 30.4457 103.144 30.383C104.022 32.1407 104.336 37.0371 104.336 37.0371C104.336 37.0371 102.893 37.7276 101.889 38.9203C99.0656 37.4137 95.9914 36.0955 92.7917 35.0283C93.3563 33.9611 93.7327 32.7056 93.7327 31.3246C93.6073 31.2618 93.3563 31.1363 93.0426 31.0735C91.0977 33.5217 86.6432 32.3918 84.761 27.8092C84.0709 26.1143 82.5651 19.774 82.6906 19.3974C82.8788 19.0835 82.8788 18.4558 82.8788 17.7025C84.0081 16.8864 85.3884 16.0076 85.9531 14.6893C86.204 14.0616 86.2667 12.9944 86.204 12.1783C86.0785 11.425 85.6394 10.3579 85.2629 9.79288C84.8865 9.29068 83.8827 8.60016 83.3807 8.34906C82.9416 8.16074 81.8123 7.78409 80.6202 7.47022C79.4282 7.15634 76.4794 6.84247 75.7265 6.71692C74.9736 6.59137 66.3783 5.39866 66.0646 5.21033C64.9353 4.95923 63.7433 4.70813 62.614 4.51981C62.363 4.39426 54.8343 2.63657 50.9444 2.82489C47.0546 3.01322 44.796 3.95484 43.353 4.58258C41.9727 5.21033 39.2122 7.72132 38.8985 8.28629C38.5848 8.91403 36.6398 10.2323 37.7691 14.8149C38.0201 15.9448 39.3376 17.1375 39.6513 17.3258C35.5733 19.5229 33.3774 25.2354 37.8319 27.6209C38.5848 27.9975 40.216 28.688 41.4708 29.0647C42.0982 29.3158 41.0316 31.0107 41.0316 31.0107C41.0316 31.0107 39.5886 31.1363 39.7141 32.5173C39.8396 33.7728 42.1609 33.8356 42.6001 34.2122C41.2198 34.9655 41.2198 36.4093 41.5963 37.5393C39.3376 38.6064 37.2045 39.7992 35.1968 41.0547C33.6283 42.059 32.1853 43.1262 30.8678 44.2562C30.7423 43.9423 30.6169 43.6284 30.4286 43.4401C29.9267 42.8123 29.3621 41.8707 28.7347 41.4313C29.5503 39.7364 27.9818 37.4765 27.4171 36.9115C26.6643 35.9071 25.284 35.7816 23.9665 35.7816C23.1509 35.5305 20.3903 34.9655 19.5747 35.1538C18.7591 35.3422 17.3788 35.9071 16.5632 37.2254C14.3673 37.3509 13.7399 39.2342 13.1125 39.4853C12.2969 39.8619 10.7284 40.4269 10.101 45.7C10.0383 46.4533 10.101 50.0314 10.101 50.0314C10.101 50.0314 8.53256 51.7263 8.03065 51.9774C6.96407 52.9818 5.96024 54.9278 5.96024 54.9278C5.33285 55.8695 2.44683 60.5148 3.88984 66.7295C4.26628 68.3616 6.58764 76.334 16.6887 76.5851C19.5747 78.6567 22.9626 79.7866 26.3506 80.226C28.6719 83.0509 31.6207 85.6874 35.1968 88.0729C44.6077 94.2248 57.0929 97.6146 70.3309 97.6146C83.569 97.6146 96.0541 94.2248 105.465 88.0729C114.939 81.8582 120.209 73.5091 120.209 64.6579C120.209 64.4068 120.209 64.1557 120.209 63.9046C122.279 62.8375 124.224 60.9542 124.977 57.8783C126.671 50.973 123.973 42.8123 123.91 42.4357C125.291 40.9291 126.42 39.1086 126.796 37.6648Z" fill="black"/>
<path d="M122.028 59.2593C120.523 62.2097 117.887 62.7119 115.064 62.9003C112.241 63.0886 105.402 60.0754 104.398 60.0126C105.089 61.5192 110.735 63.9047 110.798 64.2185C103.52 67.1689 93.3563 61.0798 93.2308 61.3937C93.0426 61.7075 97.3089 66.1645 102.955 66.6667C102.767 67.1689 101.763 67.985 98.1245 67.42C97.5599 67.3573 96.9952 68.0478 97.0579 68.6128C97.1834 68.9266 97.2462 69.0522 97.4971 69.5544C97.6853 69.931 100.76 74.5763 101.136 74.3252C101.512 74.2625 100.195 71.7515 101.512 72.0026C102.83 72.3165 110.484 76.0202 102.265 82.0465C97.3716 85.6247 85.8276 87.759 82.5024 87.8846C79.1772 88.0101 75.7265 87.0685 75.2873 86.6919C76.0402 86.7546 79.7418 87.3196 79.7418 86.8174C79.7418 86.5035 72.715 85.248 67.194 83.4276C63.3668 82.1721 58.7241 79.7239 58.4732 80.1005C58.2849 80.4772 67.7586 85.3108 67.7586 85.3108C55.8381 86.6918 39.2122 69.931 38.8985 70.1821C38.5848 70.4332 41.91 73.9486 42.2236 74.8274C41.659 74.6391 33.1264 68.0478 32.8127 68.1733C32.4363 68.2361 38.7102 75.0158 39.6513 75.6435C28.1073 81.6699 17.8807 75.1413 15.2457 73.5719C14.3046 73.007 15.1202 74.5136 15.4339 74.7647C14.932 75.0785 9.03447 73.3836 7.15228 69.4916C8.78351 69.0522 12.3597 67.4828 12.3597 67.4828C12.3597 67.4828 13.7399 72.1909 14.8065 72.3165C13.9281 70.1821 13.9909 66.6667 13.9909 66.6667L14.8692 66.2273C14.8692 66.2273 15.0575 68.55 15.4339 68.7383C15.5594 66.9806 16.2495 65.0974 16.2495 65.0974C16.2495 65.0974 21.7078 59.1966 23.2763 54.1746C25.5349 53.1074 29.2366 52.6052 29.2366 52.6052C27.1034 56.8739 28.4837 59.4477 28.9229 59.8871C31.8089 49.2782 40.0278 46.7044 40.9061 46.6416C41.4708 49.8431 42.4746 53.2957 46.8036 54.6768C46.4899 55.4301 42.0982 63.9674 41.8472 64.7207C42.2236 65.0974 48.3721 61.4564 48.3721 61.4564C48.4348 61.8331 46.5527 66.4156 47.6192 67.1689C48.1212 67.4828 55.4617 62.2725 56.4655 61.8331L57.0929 61.5192C55.148 64.658 53.0776 79.1589 53.0148 79.2844C54.5206 79.2844 55.9636 79.1589 57.0929 78.3428C57.0929 64.9718 59.7907 60.7031 60.1671 60.0126C60.9827 60.1382 62.1748 59.7615 62.3003 59.3849C62.4258 59.6988 63.3041 67.1689 63.7433 70.9982C64.1825 74.8274 64.8098 78.4056 65.0608 78.6567C65.0608 78.6567 67.0685 76.3968 67.8213 75.3924C66.1274 68.9266 67.2567 63.8419 65.5627 60.8287C66.6293 61.4564 73.2797 65.2229 74.7227 65.7879C76.1657 66.3529 78.2361 64.0302 77.6087 62.5864C76.9813 61.1426 70.7074 57.5644 70.5819 57.3761C73.7816 57.3133 83.569 63.9674 83.8827 63.7791C84.1963 63.6536 83.8199 60.201 86.1413 55.2418C86.3922 55.9323 87.3333 57.3133 87.5215 57.4389C87.7725 57.5644 87.9607 57.3761 88.0235 57.1878C88.0235 56.8111 87.2706 53.1074 88.5254 49.4037C90.5958 43.5657 96.0541 41.3686 97.999 41.1802C99.944 40.9919 100.634 41.6197 100.634 41.6197C100.634 41.6197 99.3166 46.2022 100.383 47.7716C100.885 48.5249 101.575 49.9687 101.826 49.4665C102.077 48.9643 100.32 43.3773 104.712 39.0459C110.986 46.5789 122.091 43.189 122.091 43.189C122.091 43.189 125.291 52.668 122.028 59.2593Z" fill="white"/>
<path d="M103.583 28.4997C103.269 28.4369 102.077 28.0602 101.073 27.0558C100.069 26.1142 98.7519 24.231 98.7519 22.3477C98.7519 20.4645 97.8736 22.5361 97.5599 22.5988C97.3089 22.6616 97.1834 21.9083 96.9325 21.9083C96.6815 21.9083 96.4933 22.9127 96.4933 22.9127C96.4933 22.9127 94.4856 23.0383 95.2385 20.4017C95.4895 19.3973 96.6815 17.7652 98.7519 17.4513C98.8147 16.8863 99.6303 15.8192 99.6303 15.8192C99.6303 15.8192 98.6264 16.1958 98.4382 16.698C97.9363 16.6352 97.0579 16.6352 95.9286 16.9491C96.3678 15.8192 98.9401 13.8732 99.693 13.9987C99.5048 13.6221 98.7519 13.6221 98.7519 13.4965C99.3166 13.3082 100.32 11.7388 103.708 12.0527C103.583 11.4877 103.332 11.0483 102.767 11.0483C106.908 9.66726 109.104 12.1155 110.045 13.1826C111.049 14.2498 112.115 17.8907 112.304 23.5405C113.558 23.9799 113.684 26.8675 111.864 27.6836C108.539 29.1902 104.085 28.5624 103.583 28.4997Z" fill="#F2D7BF"/>
<path d="M51.7601 52.2285C50.3171 51.8519 51.7601 53.484 51.7601 53.484C51.7601 53.484 43.2275 54.6767 42.8511 46.3905C42.8511 45.8883 42.9765 45.3233 43.5412 45.0722C44.1686 44.8211 45.2979 44.4445 49.8151 45.0094C50.0034 45.0094 49.8151 44.7583 49.8151 44.57C49.5015 44.3817 46.8037 43.6912 43.6039 44.005C42.6001 44.0678 42.0982 43.8167 42.0355 43.3773C41.9727 42.9379 41.5963 41.6196 43.7922 41.0546C44.8587 40.8035 49.3132 40.0502 54.5833 43.5656C56.0264 44.5072 61.2965 49.1526 63.5551 46.2021C64.2452 46.2021 64.1197 47.646 64.308 47.5832C64.5589 47.5832 65.6255 45.0094 63.6806 43.189C62.865 42.3101 61.5474 41.6196 60.4809 41.494C59.4143 41.3685 55.2735 40.8035 53.0776 40.6152L52.6384 40.5524C52.5757 40.3013 52.9521 40.113 53.0149 39.9247C53.2658 39.6108 53.8305 39.548 54.0187 39.1086C54.5206 38.8575 54.9598 38.5436 54.9598 37.8531C54.897 37.0998 54.8343 35.2166 51.8855 34.8399C51.9483 35.1538 52.0738 35.2794 52.3247 35.5305C52.9521 35.5305 54.5206 37.037 53.3286 37.8531C52.3247 38.5436 50.5053 38.3553 50.5053 38.3553C50.5053 38.3553 50.1288 39.6108 49.125 39.7364C48.1839 39.8619 47.1801 39.8619 46.6154 39.6108C45.3606 39.1086 45.8626 38.2298 46.0508 37.4137C46.239 36.5348 47.5565 36.4721 47.2428 35.7816C47.0546 35.4677 46.8664 35.2794 46.8037 34.9027C46.6154 34.0239 47.8075 32.3289 48.1212 31.7012C48.4976 31.1362 48.0584 29.3785 47.682 29.3158C47.0546 29.253 47.682 30.9479 47.1173 31.5757C46.49 32.2034 44.3568 32.58 43.8549 32.4545C43.4157 32.3289 42.9138 31.8895 43.102 31.6384C43.2902 31.3873 43.0393 30.0691 43.9176 29.6296C44.8587 29.1902 44.9215 27.8092 45.1724 27.4325C45.4234 27.0559 45.6743 26.4909 47.431 25.9887C50.3798 25.1726 57.0929 26.0515 57.0929 26.0515C57.0929 26.0515 56.0891 26.6792 55.0853 27.6836C53.956 28.7508 51.9483 32.6428 51.0072 32.0151C50.0661 31.3873 51.1327 29.5041 50.819 29.3158C50.1288 28.9391 49.6897 30.8851 49.7524 31.4501C49.8151 32.0151 50.6308 33.3333 51.6973 33.5217C51.8856 33.5844 52.6384 33.3333 53.0776 33.5217L53.6423 33.6472C53.5168 34.7144 55.2107 35.3421 55.2107 35.3421C55.3362 35.4677 55.5872 35.3421 55.5872 35.1538C55.399 34.9027 54.9598 34.5888 54.8343 34.2122C59.0378 35.091 60.92 33.0822 61.2337 32.9567C61.5474 32.8311 62.4885 32.7056 62.4258 32.4545C62.363 32.1406 60.9828 32.3917 60.9828 32.3917C60.9828 32.3917 61.0455 31.8268 60.7318 31.3246C60.92 31.199 61.3592 31.3246 61.4219 31.0735C61.4847 30.8224 61.171 30.7596 61.0455 30.5713C61.2965 30.5085 61.7984 30.5085 61.7984 30.1318C61.8611 29.9435 61.7356 29.8807 61.6102 29.818C61.171 29.7552 59.3515 29.4413 57.7831 30.0063C56.2146 30.5713 54.9598 31.7012 54.5833 31.4501C54.5833 31.0735 55.148 29.6924 57.1557 28.4997C57.5948 28.2486 58.8496 27.9975 58.8496 27.9975C58.8496 27.9975 59.2261 28.688 59.5398 28.688C59.7907 28.688 59.8535 27.9975 59.9789 27.9347C59.9789 27.9347 60.2299 28.688 60.5436 28.6252C60.7946 28.5625 60.7318 27.9347 61.0455 27.872C61.3592 27.7464 61.7984 27.9975 62.0493 28.1858C62.1748 28.3741 62.4885 28.6252 62.7395 28.6252C63.1159 28.5625 63.3669 28.3741 63.3041 27.6836C63.2414 26.9931 62.0493 26.6165 61.7984 26.3654C62.2376 26.1143 64.1825 26.3654 64.4334 26.6165C66.5038 37.2881 75.0991 40.113 75.4128 40.5524C75.4128 40.5524 75.4128 40.5524 75.3501 40.5524C75.6011 40.7408 75.3501 41.9335 73.3424 41.0546C73.5307 41.8079 74.2835 42.5612 75.1619 42.624C76.4794 42.7495 76.9813 41.3685 77.295 41.3685C77.4205 41.7451 76.6049 44.005 76.9813 46.3905C77.546 43.5656 78.6126 41.8079 78.9263 41.5568C79.8046 41.6824 80.6202 41.6824 81.4986 41.6196C81.6868 42.3729 82.5024 46.8927 82.126 47.2693C74.3463 54.1745 65.6882 53.9862 64.9354 54.1745C73.0915 49.9059 75.4756 45.5744 75.1619 45.1978C74.9109 45.3861 73.217 47.4576 72.7151 47.8343C72.6523 47.646 73.9698 45.4489 73.7816 45.135C62.2376 58.0038 52.3247 52.4168 51.7601 52.2285Z" fill="#F2D7BF"/>
<path d="M62.6767 56.3716C62.5512 56.9366 62.363 57.4388 62.363 58.0665C62.3003 58.0665 62.2375 58.1921 62.1748 58.0665C61.9866 57.4388 62.0493 56.6855 62.4258 56.1833C62.614 56.1205 62.614 56.3088 62.6767 56.3716Z" fill="white"/>
<path d="M60.6691 56.7482C60.4809 57.2504 60.7946 58.1921 60.1044 58.2548C59.7907 57.7526 60.0417 57.1249 60.1672 56.6855C60.3554 56.6227 60.6691 56.4971 60.6691 56.7482Z" fill="white"/>
<path d="M58.7241 58.1293C59.1006 58.0665 59.4143 58.2548 59.226 58.3804C55.5871 60.452 50.1288 64.6579 49.7524 64.4695C49.3132 64.2184 53.8932 59.3848 58.7241 58.1293Z" fill="white"/>
<path d="M45.6116 60.7031C45.6116 60.7031 46.3644 57.7527 48.4976 55.1161C49.6269 55.3044 52.6384 55.1789 53.8932 54.8022C55.5244 55.3044 58.2222 55.4928 58.2222 55.4928C51.5091 57.8782 45.6116 60.7031 45.6116 60.7031Z" fill="white"/>
<path d="M43.2902 35.907C43.6667 35.4676 43.9804 36.1581 44.4823 35.0282C45.1097 35.091 45.2979 35.4676 45.2979 35.907C44.7333 36.1581 44.0431 37.0998 43.7294 38.4808C43.4785 38.418 42.7256 36.6603 43.2902 35.907Z" fill="#F2D9BF"/>
<path d="M54.5206 41.9962C55.2734 41.9962 56.591 42.1218 56.8419 42.1845C56.9047 42.5612 56.9047 43.6911 56.9047 43.6911C56.9047 43.6911 54.646 42.3101 54.5206 41.9962Z" fill="white"/>
<path d="M59.728 45.0094C59.0378 44.6955 57.4066 44.005 57.4066 44.005V42.2473C57.4066 42.2473 58.9751 42.4984 59.6652 42.5612C59.7907 42.8123 59.6652 44.6327 59.728 45.0094Z" fill="white"/>
<path d="M60.4181 42.7495C62.1121 43.0634 61.9866 44.005 62.1121 44.4444C62.2375 44.8839 61.8611 45.5116 61.6101 45.6371C61.3592 45.7627 60.2926 45.2605 60.2926 45.2605C60.2926 45.2605 60.4808 42.8123 60.4181 42.7495Z" fill="white"/>
<path d="M57.4693 33.7728C56.8419 33.8983 55.5244 33.8355 55.0225 33.6472C55.0225 33.3961 54.897 33.0195 55.2107 32.7056C55.5244 32.3917 56.089 32.3917 56.089 32.3917C56.089 32.3917 56.089 33.3961 57.4693 33.7728Z" fill="white"/>
<path d="M56.7792 31.9523C56.6538 32.0778 57.1557 31.6384 57.4066 31.6384C57.9085 31.6384 57.9085 32.3289 57.7831 32.58C57.5321 33.145 57.0929 32.9567 56.842 32.7056C56.591 32.5173 56.9047 31.8268 56.7792 31.9523Z" fill="white"/>
<path d="M63.9316 57.6899C64.057 57.6272 71.0838 61.0798 74.7855 64.2185C74.9737 64.4068 74.7855 64.5951 74.5973 64.4696C72.5269 63.528 64.4335 58.3804 63.9943 58.1294C63.4924 57.941 63.8061 57.7527 63.9316 57.6899Z" fill="white"/>
<path d="M85.5766 44.6328C86.204 43.5028 88.4627 44.2561 88.4627 44.2561C89.341 44.57 85.7649 47.9598 85.5139 51.538C85.5139 52.0402 85.4512 52.7307 85.3257 53.1073C82.9416 57.1877 82.4397 60.5147 82.126 60.7031C81.4358 60.5775 77.3578 57.3132 69.5781 55.1789C80.181 52.2285 83.8827 47.7715 85.5766 44.6328Z" fill="white"/>
<path d="M37.0163 24.0427L36.9536 23.9799C37.0163 23.3522 37.3927 21.8456 37.7064 21.1551C38.0201 20.4646 38.6475 19.2718 41.91 17.4514C45.1097 15.6309 54.0187 14.8776 54.0187 14.7521L54.3951 15.1915C53.9559 15.317 46.49 16.6353 42.2237 18.5186C37.8319 20.339 37.33 23.7288 37.0163 24.0427Z" fill="white"/>
<path d="M42.6628 27.1814C42.7256 26.6793 42.851 25.4238 43.1647 23.9799C43.4784 22.5361 43.9176 21.7201 44.6705 20.5273C46.3017 17.828 48.3721 17.3886 49.4387 17.2003C50.5052 16.9492 56.4028 15.4426 56.4028 15.4426C56.4028 15.4426 55.3362 13.6849 55.9008 12.4922C53.6422 12.3666 49.6896 14.7521 49.4387 14.1243C50.3798 13.6221 52.1365 12.4294 56.34 11.4878C57.0302 10.6089 59.226 10.2323 60.1044 11.4878C63.4296 11.5506 68.5742 11.8017 70.2682 12.0528C71.7112 12.2411 74.8482 12.8688 77.5459 13.8732C78.4243 14.1871 80.181 15.0032 80.9339 15.6309C81.3731 15.9448 81.1221 16.447 80.6829 16.0703C80.2438 15.6937 77.8596 14.6265 76.9186 14.3126C75.9775 13.9988 74.7227 13.5594 72.966 13.2455C71.2093 12.9316 69.7663 12.7433 68.0096 12.6177C66.7548 12.555 65.1235 12.3666 64.4961 12.3039C64.4334 12.3666 64.4961 12.4922 64.4961 12.6177C64.9981 12.6177 64.9981 12.7433 65.9391 12.8688C66.692 12.9944 69.1389 13.5594 70.3309 13.8105C75.2246 14.8148 78.0479 17.1375 78.2361 17.2003C78.738 17.5769 79.3027 17.828 79.5536 18.393C80.8084 19.8368 80.8711 20.7784 81.0594 21.3434C81.2476 21.9084 81.3731 22.7245 81.8122 24.2938C82.2514 25.8632 82.7533 27.6836 83.0043 28.3742C85.5766 35.7816 89.7801 34.2122 89.9056 34.4633C89.4664 36.221 86.5804 38.2298 83.8826 39.1714C81.2476 40.113 77.7342 37.602 77.1695 37.1626C76.4794 38.1042 75.1618 37.8531 74.0325 37.3509C67.0685 34.0867 65.6255 27.1814 65.5 26.6165C65.3745 26.0515 64.7471 24.6077 64.3707 24.231C63.8687 24.9216 62.3003 25.6749 57.5321 24.7332C54.7715 24.1683 50.5052 24.1683 49.125 24.6077C47.7447 24.9843 45.737 25.6749 45.1097 26.1771C44.545 26.6793 43.9176 27.9347 43.7921 28.688C43.2902 28.7508 42.5373 28.2486 42.6628 27.1814Z" fill="white"/>
<path d="M11.2304 52.1657C12.6106 50.5336 12.2969 47.081 12.1715 45.3233C11.795 40.9291 14.7438 40.8663 14.7438 40.8663C14.7438 40.8663 14.932 39.548 15.6221 39.1086C16.3123 38.6692 17.6925 38.4808 17.6925 38.4808C17.6925 38.4808 19.0728 36.9115 20.0139 36.8487C20.955 36.7859 20.0766 36.8487 20.0766 36.8487C20.704 36.8487 21.3314 36.8487 21.9588 36.9743C21.8333 37.0998 20.3276 37.9159 21.9588 37.602C23.5273 37.2881 25.6604 38.1042 25.6604 38.1042V39.2969C25.6604 39.2969 26.4761 38.6692 26.727 38.983C27.0407 39.4225 27.6681 41.3685 27.6681 41.3685L26.2251 41.7451C26.2251 41.7451 24.9076 39.6108 24.4057 39.2969C23.9037 38.983 22.7117 39.1086 22.4607 38.7947C21.5824 38.7947 19.9512 39.7363 19.9512 39.7363C19.9512 39.7363 22.7117 39.0458 24.2174 40.8663C24.1547 41.1174 23.4646 41.7451 23.4646 41.7451L24.9076 41.4313L25.4095 42.1845C25.4095 42.1845 23.9665 43.3145 23.5273 43.5656C23.4646 43.8167 23.0254 44.005 22.8372 43.8167C20.3903 41.3685 18.9473 41.7451 18.8218 41.8079C19.8884 42.2473 21.0805 43.8167 21.2059 43.9422C20.7668 44.1933 20.6413 44.6955 20.1394 44.9466C20.704 45.5116 21.7706 44.57 21.8961 44.8211C22.398 45.7627 21.8961 47.2693 22.0216 48.3365C21.1432 49.4036 18.8218 50.1569 18.4454 50.0942C18.069 49.9686 17.6298 48.2109 17.6925 47.8343C18.1945 47.5204 19.1355 47.6459 19.1355 47.3321C19.1355 47.0182 16.0613 44.6955 15.4967 44.8839C15.4967 45.3861 15.8731 46.4532 15.8731 46.4532C15.8731 46.4532 16.0613 45.6372 16.626 46.7671C18.3827 46.3904 16.2495 48.0854 16.2495 48.6503C16.2495 49.1525 17.9435 51.1613 18.1945 51.2241C18.4454 51.2869 22.0843 50.408 22.7744 48.7759C23.9665 49.3409 25.535 48.9014 25.3467 48.462C24.7194 49.1525 21.7706 47.5204 23.2136 46.0766C23.5273 46.3904 24.6566 47.7087 25.4095 47.5832C25.9741 47.081 27.0407 46.4532 27.1662 45.951C26.6643 45.3233 25.8487 44.8211 25.7859 44.005C26.0369 43.6911 27.1035 43.0006 27.5426 42.9378C28.2955 42.7495 29.7385 45.0094 29.1739 45.6371C27.8563 47.1437 26.4133 48.7131 26.0996 49.1525C25.7232 49.592 24.9076 50.5336 24.6566 50.7847C24.3429 51.0358 23.6528 52.6051 23.0881 52.919C22.5235 53.2329 19.9512 54.1745 19.1355 54.6767C18.3199 55.1789 16.0613 56.2461 13.3008 55.8694C8.97175 55.1161 10.9167 52.6679 11.2304 52.1657Z" fill="#F2D9BF"/>
<path d="M26.476 45.7627C26.0996 45.8882 25.5977 46.8926 25.033 46.5788C24.7821 46.3904 24.0292 46.0766 23.7782 45.386C23.6528 45.0722 25.0958 43.7539 25.1585 44.1306C25.284 44.7583 25.9741 45.2605 26.476 45.7627Z" fill="#FFF5EC"/>
<path d="M8.84623 53.9862C8.65801 54.4884 8.72075 57.6899 14.1163 57.5016C16.2495 57.4388 18.0062 56.4972 18.8218 56.1833C17.1906 59.071 12.1714 62.1469 11.8577 62.4608C11.544 62.8374 17.3788 60.7031 20.2648 55.5556C20.2648 55.4928 21.0177 55.1162 21.0804 55.1162C21.2059 55.5556 15.9358 65.7878 6.52487 67.4828C3.63885 61.1425 8.46979 53.7979 8.84623 53.9862Z" fill="white"/>
<path d="M118.327 41.7451C110.045 42.3729 106.092 37.9787 106.155 37.2881C106.406 36.7859 105.34 30.634 105.34 30.634C105.34 30.634 114.939 30.4457 115.19 26.6792C115.252 25.5493 115.064 24.4193 114.813 24.1055C118.201 25.9887 119.832 32.4545 124.601 38.0414C124.287 38.9831 122.216 41.4313 118.327 41.7451Z" fill="white"/>
<path d="M58.3477 15.5053C59.3515 15.5053 60.1044 14.5637 60.1044 13.4337C60.1044 12.3038 59.2888 11.3622 58.3477 11.3622C57.3439 11.3622 56.591 12.3038 56.591 13.4337C56.591 14.5637 57.4066 15.5053 58.3477 15.5053Z" fill="black"/>
<path d="M93.67 67.2317C93.67 67.2317 90.4703 67.3572 88.4627 67.6711C86.455 68.0478 85.012 68.3616 83.6317 69.4916C82.1887 70.6843 81.875 72.0026 82.3142 73.0697C82.6906 74.1369 83.6945 75.2041 85.2629 75.8318C87.1451 76.5851 89.09 76.7734 91.2859 76.6479C93.1681 76.5223 95.4267 75.8318 95.4895 75.8318C95.5522 75.0158 95.615 74.2625 95.7404 73.4464C95.7404 73.4464 95.3013 73.1953 94.9248 73.4464C94.6111 73.6975 94.4229 74.5763 93.6073 75.2041C92.7917 75.8318 91.2859 75.769 90.3448 75.769C88.4627 75.769 85.5766 74.6391 85.0747 72.3164C84.6356 70.1193 86.8942 68.7383 88.5881 68.3616C89.6547 68.1105 91.5996 68.0478 92.227 68.4872C92.9172 68.9266 93.2309 69.6799 93.67 69.7427C94.1092 69.8055 94.2347 69.3033 94.2974 69.3033C94.0465 68.6127 93.8582 67.9222 93.67 67.2317Z" fill="#003767"/>
<path d="M93.67 67.2317C93.67 67.2317 90.4703 67.3572 88.4627 67.6711C86.455 68.0478 85.012 68.3616 83.6317 69.4916C82.1887 70.6843 81.875 72.0026 82.3142 73.0697C82.6906 74.1369 83.6945 75.2041 85.2629 75.8318C87.1451 76.5851 89.09 76.7734 91.2859 76.6479C93.1681 76.5223 95.4267 75.8318 95.4895 75.8318C95.5522 75.0158 95.615 74.2625 95.7404 73.4464C95.7404 73.4464 95.3013 73.1953 94.9248 73.4464C94.6111 73.6975 94.4229 74.5763 93.6073 75.2041C92.7917 75.8318 91.2859 75.769 90.3448 75.769C88.4627 75.769 85.5766 74.6391 85.0747 72.3164C84.6356 70.1193 86.8942 68.7383 88.5881 68.3616C89.6547 68.1105 91.5996 68.0478 92.227 68.4872C92.9172 68.9266 93.2309 69.6799 93.67 69.7427C94.1092 69.8055 94.2347 69.3033 94.2974 69.3033C94.0465 68.6127 93.8582 67.9222 93.67 67.2317Z" fill="#003767"/>
<path d="M81.1221 72.8186C79.4282 73.007 77.6715 73.1953 75.9775 73.3836C75.7893 73.4464 75.4756 73.5092 75.5383 73.823C75.6011 74.1369 75.9147 74.0741 76.2284 74.1369C76.5421 74.1369 76.7304 74.1369 76.9186 74.2625C77.1695 74.3252 77.4832 74.6391 77.6087 74.7646C78.9262 76.3968 84.9492 81.6699 85.3884 81.6071C85.2002 81.6071 87.647 73.6975 88.0862 73.6975C88.0862 73.6975 88.3999 73.1953 88.5881 73.0697C88.7136 73.007 89.1528 72.8186 89.5292 72.7559C89.9684 72.6931 90.4076 72.6303 90.4076 72.3164C90.4076 72.0653 90.2193 72.0026 89.9684 72.0026C88.6509 72.1281 87.3961 72.2537 86.0785 72.3792C85.7648 72.442 85.5766 72.5675 85.5766 72.7559C85.5766 72.9442 85.7021 73.0697 85.9531 73.1325C86.1413 73.1325 86.455 73.1325 86.6432 73.2581C86.8314 73.3836 86.7687 73.6975 86.7059 73.8858C86.455 74.0114 84.761 78.7822 84.8865 78.7822C83.318 77.4012 81.875 75.9574 80.6202 74.4508C80.6202 74.4508 80.3065 74.1369 80.432 73.8858C80.4947 73.6975 80.9966 73.6347 81.2476 73.5719C81.5613 73.5092 81.8123 73.3836 81.7495 73.1325C81.6868 72.7559 81.3103 72.7559 81.1221 72.8186Z" fill="#003767"/>
<path d="M69.6408 69.931C69.3271 69.9938 69.1389 70.1194 69.2017 70.3705C69.2644 70.6216 69.5154 70.6216 69.7036 70.6843C69.9545 70.6843 70.6447 70.6216 70.8329 70.7471C71.0211 70.8099 71.1466 70.9982 71.2093 71.1865C71.5858 73.1325 72.0877 75.0786 72.7151 77.0246C72.7778 77.2129 72.7778 77.5268 72.7778 77.5895C72.7778 77.7151 72.7151 77.9662 72.2131 78.029C71.7112 78.1545 71.2721 78.2801 71.3975 78.5939C71.5858 78.9706 71.9622 78.845 72.2759 78.7823C72.5268 78.7195 81.6241 77.464 81.6241 77.464C81.6868 76.9618 81.7495 76.4596 81.8123 75.8946C81.7495 75.6435 81.6241 75.518 81.4359 75.4552C81.1849 75.3296 80.8712 75.3297 80.8712 75.3297C80.8712 75.3297 80.7457 75.7691 80.6202 76.0202C80.2438 76.5851 79.9301 76.8362 78.2361 77.0873C76.7931 77.4012 76.0403 77.2757 75.852 77.0873C75.7266 76.9618 75.5383 76.8362 75.4756 76.4596C75.2874 76.2713 73.9071 70.8099 74.0326 70.8099C74.0326 70.8099 73.9699 70.496 74.2836 70.3077C74.409 70.1821 75.1619 70.0566 75.3501 69.9938C75.5383 69.931 75.6638 69.8055 75.6638 69.6172C75.6638 69.4288 75.4129 69.3033 75.2246 69.3661C73.2797 69.5544 71.4603 69.7427 69.6408 69.931Z" fill="#003767"/>
<path d="M69.6408 69.931C69.3271 69.9938 69.1389 70.1194 69.2017 70.3705C69.2644 70.6216 69.5154 70.6216 69.7036 70.6843C69.9545 70.6843 70.6447 70.6216 70.8329 70.7471C71.0211 70.8099 71.1466 70.9982 71.2093 71.1865C71.5858 73.1325 72.0877 75.0786 72.7151 77.0246C72.7778 77.2129 72.7778 77.5268 72.7778 77.5895C72.7778 77.7151 72.7151 77.9662 72.2131 78.029C71.7112 78.1545 71.2721 78.2801 71.3975 78.5939C71.5858 78.9706 71.9622 78.845 72.2759 78.7823C72.5268 78.7195 81.6241 77.464 81.6241 77.464C81.6868 76.9618 81.7495 76.4596 81.8123 75.8946C81.7495 75.6435 81.6241 75.518 81.4359 75.4552C81.1849 75.3296 80.8712 75.3297 80.8712 75.3297C80.8712 75.3297 80.7457 75.7691 80.6202 76.0202C80.2438 76.5851 79.9301 76.8362 78.2361 77.0873C76.7931 77.4012 76.0403 77.2757 75.852 77.0873C75.7266 76.9618 75.5383 76.8362 75.4756 76.4596C75.2874 76.2713 73.9071 70.8099 74.0326 70.8099C74.0326 70.8099 73.9699 70.496 74.2836 70.3077C74.409 70.1821 75.1619 70.0566 75.3501 69.9938C75.5383 69.931 75.6638 69.8055 75.6638 69.6172C75.6638 69.4288 75.4129 69.3033 75.2246 69.3661C73.2797 69.5544 71.4603 69.7427 69.6408 69.931Z" fill="#003767"/>
<path d="M82.9416 28.3113C82.6906 27.6208 82.1887 25.8004 81.7496 24.231C81.3104 22.6616 81.1849 21.8456 80.9967 21.2806C80.8085 20.7156 80.7457 19.774 79.4909 18.3302C79.1772 17.828 78.6126 17.5141 78.1734 17.1375C77.9225 17.0747 75.1619 14.6892 70.2682 13.7476C69.0762 13.4965 66.6293 12.9316 65.8765 12.806C64.9354 12.6805 64.9354 12.5549 64.4335 12.5549C63.1159 12.3666 61.9239 12.4921 60.9201 12.7432C60.9828 12.9943 60.9828 13.2454 60.9828 13.4965C60.9828 15.1287 59.7907 16.4469 58.3477 16.4469C57.5321 16.4469 56.842 16.0703 56.3401 15.4425C55.9636 15.5681 50.3798 16.9491 49.4387 17.2002C48.3722 17.4513 46.3018 17.828 44.6705 20.5273C43.9177 21.72 43.4785 22.5361 43.1648 23.9799C42.8511 25.4237 42.7256 26.742 42.6629 27.1814C42.5374 28.2486 43.2903 28.7508 43.6667 28.688C43.7922 27.8719 44.3568 26.6164 44.9842 26.177C45.5489 25.6748 47.5565 24.9843 48.9996 24.6076C50.3798 24.231 54.6461 24.231 57.4066 24.7332C62.1748 25.6748 63.7433 24.9215 64.2452 24.231C64.6217 24.6076 65.2491 26.0515 65.3746 26.6164C65.5 27.1814 66.943 34.1494 73.9071 37.3509C75.0364 37.9159 76.354 38.1042 77.0441 37.1626C77.6715 37.602 81.1222 40.113 83.7572 39.1714C86.3923 38.2297 89.341 36.2209 89.7802 34.4633C89.7175 34.2122 85.5139 35.7815 82.9416 28.3113Z" fill="#FFD457"/>
<path d="M116.821 38.7947C120.648 36.4093 115.943 30.634 115.943 30.634C115.943 30.634 118.138 35.3421 116.821 38.7947Z" fill="black"/>
<path d="M105.151 11.3622C104.838 11.425 103.897 12.6177 103.897 12.8688C103.897 13.1199 103.959 13.4966 104.336 13.371C104.712 13.2455 105.841 12.0528 105.904 11.8017C105.904 11.4878 105.528 11.2995 105.151 11.3622Z" fill="#98887A"/>
<path d="M65.9391 43.5028C67.0685 44.9467 66.7548 46.2649 66.1901 47.1438C66.943 47.3321 68.8879 45.2605 67.2567 43.2517C66.3783 42.2473 58.8496 38.5436 58.4104 38.4181C58.4104 38.4181 64.1197 41.2429 65.9391 43.5028Z" fill="#98887A"/>
<path d="M62.363 33.9611C61.9238 33.5845 61.5474 34.2122 61.0455 34.5261C60.5436 34.84 60.1044 34.6517 59.6652 35.2794C61.171 35.4677 62.363 34.0867 62.363 33.9611Z" fill="#98887A"/>
<path d="M48.4348 33.8984C47.9329 34.5889 48.9995 35.7188 49.1877 35.5305C49.3759 35.4049 48.9995 35.0911 48.9368 34.4633C48.8113 33.8984 48.7485 33.4589 48.4348 33.8984Z" fill="#98887A"/>
<path d="M108.477 18.7696C108.539 18.5813 108.665 18.1418 108.477 18.1418C108.288 18.1418 108.1 18.8324 108.1 18.9579C108.163 19.0835 108.414 18.9579 108.477 18.7696Z" fill="#98887A"/>
<path d="M107.159 21.469C107.222 21.5945 107.41 21.469 107.473 21.4062C107.535 21.2807 107.661 21.1551 107.473 20.9668C107.284 20.7785 107.033 21.3434 107.159 21.469Z" fill="#98887A"/>
<path d="M108.351 22.5361C108.476 22.6616 108.79 22.4105 108.916 22.1594C109.041 21.9083 108.916 21.2806 108.727 21.5317C108.539 21.72 108.414 21.9083 108.288 22.0339C108.226 22.1594 108.226 22.4105 108.351 22.5361Z" fill="#98887A"/>
<path d="M108.665 24.5448C108.477 24.6076 108.414 24.7959 108.351 25.047C108.288 25.2354 108.351 25.4237 108.539 25.3609C108.665 25.2981 108.79 25.1726 108.853 24.9843C108.916 24.8587 108.79 24.4821 108.665 24.5448Z" fill="#98887A"/>
<path d="M109.229 16.3215C109.292 16.1331 109.229 16.1331 109.355 15.8193C109.48 15.5054 109.355 15.1915 108.978 15.2543C108.79 15.5054 108.665 16.1331 108.79 16.3215C108.916 16.5098 109.104 16.3842 109.229 16.3215Z" fill="#98887A"/>
<path d="M110.108 22.85C110.233 22.85 111.174 21.469 111.174 21.2179C111.112 20.904 110.672 20.339 110.672 20.8412C110.672 21.3434 110.296 22.0967 110.108 22.285C109.857 22.5361 109.982 22.85 110.108 22.85Z" fill="#98887A"/>
<path d="M110.923 23.2266C110.798 23.5405 110.547 24.3565 110.61 24.6704C110.735 24.9215 111.112 24.3565 111.174 24.1054C111.237 23.7916 111.049 22.9127 110.923 23.2266Z" fill="#98887A"/>
<path d="M106.845 26.1143C106.908 26.1143 107.096 25.8632 107.096 25.6749C107.034 25.4866 106.657 25.926 106.657 26.0516C106.657 26.1143 106.783 26.1143 106.845 26.1143Z" fill="#98887A"/>
<path d="M109.982 18.1419C110.296 18.0164 110.359 17.577 110.359 17.3259C110.359 17.0748 110.171 16.9492 110.045 16.9492C109.92 16.9492 109.857 17.0748 109.92 17.3259C109.92 17.5142 109.669 18.2675 109.982 18.1419Z" fill="#98887A"/>
<path d="M107.347 15.5682C107.41 15.3798 107.159 15.0032 107.034 15.1287C106.908 15.2543 106.845 15.5054 106.908 15.6309C106.971 15.7565 107.284 15.7565 107.347 15.5682Z" fill="#98887A"/>
<path d="M81.4358 41.6196C80.5575 41.6824 79.8046 41.6196 78.8635 41.5568C78.6125 41.7452 78.0479 42.6868 77.4832 44.1934L81.875 44.3817C81.7495 43.189 81.5613 41.9963 81.4358 41.6196ZM75.1619 42.624C74.2208 42.5612 73.5306 41.808 73.3424 41.0547C75.2873 41.9335 75.5383 40.8036 75.3501 40.5525C75.3501 40.5525 75.3501 40.5525 75.4128 40.5525C75.0991 40.113 66.6293 37.3509 64.4962 26.8676L64.4334 26.8048C64.4334 26.8048 67.2567 39.2342 72.1504 44.6956L76.9186 44.1306C77.044 42.6868 77.4205 41.5569 77.295 41.3058C76.9813 41.3685 76.4794 42.6868 75.1619 42.624Z" fill="url(#paint0_linear)"/>
<path d="M97.5599 67.6083C97.7481 67.4827 97.9363 67.42 98.1245 67.42C101.763 67.9849 102.767 67.1688 102.955 66.6667C100.32 66.4156 97.999 65.3484 96.3051 64.2184C96.1168 65.0345 96.2423 66.2272 97.5599 67.6083ZM121.903 43.2517C121.903 43.2517 120.899 43.5656 119.33 43.7539C119.581 44.8838 121.903 56.4972 117.574 59.5103C117.574 59.5103 114.688 61.7075 111.488 61.9586C111.488 61.9586 111.237 62.0213 110.735 62.0841C112.366 62.5863 113.998 62.9629 115.064 62.9002C117.887 62.7118 120.522 62.2097 122.028 59.2592C125.291 52.6679 121.903 43.2517 121.903 43.2517ZM107.724 62.5235C104.963 62.8374 100.948 63.1513 97.0579 63.0257C100.697 64.4695 106.343 66.1017 110.861 64.2812C110.798 64.0929 109.292 63.3396 107.724 62.5235Z" fill="#DBDDDE"/>
<path d="M30.3032 78.0917L26.2251 77.8406C27.4799 78.0289 28.8602 78.1545 30.3032 78.0917Z" fill="white"/>
<path d="M7.08954 69.4916C7.27776 69.931 7.59145 70.3704 7.90515 70.7471L7.08954 69.4916Z" fill="white"/>
<path d="M30.6796 71.1864C28.9857 71.1864 27.3544 71.0609 25.6605 70.8725C24.2174 70.4331 22.649 70.0565 21.206 69.6798C21.0177 69.3659 20.704 69.6798 20.5786 69.4287C19.8257 69.4915 19.512 68.6754 18.6964 68.8637C18.6336 69.5543 19.3865 69.9937 19.8257 70.4331C20.3903 70.6214 20.8295 71.1864 21.4569 71.2492C22.0843 71.6258 22.8372 71.7514 23.5273 72.0652C25.7232 72.693 28.0446 72.693 30.3659 72.128C30.6169 72.0025 31.0561 71.9397 31.1188 71.6258C31.1188 71.3747 30.9933 71.1864 30.6796 71.1864Z" fill="black"/>
<path d="M20.0139 47.0182C20.0139 47.0182 19.9511 48.2109 19.7629 49.5292C20.5785 49.2153 21.5196 48.7131 22.0215 48.1482C21.8961 47.081 22.398 45.5744 21.8961 44.6328C21.7706 44.4445 20.704 45.3233 20.1394 44.7583C20.5785 44.57 20.7668 44.0678 21.2059 43.7539C21.0805 43.6284 19.8257 42.059 18.8218 41.6196C18.8218 41.6196 18.8846 41.6196 18.9473 41.6196C18.6964 41.494 18.2572 41.1802 18.5081 40.7408C18.5081 40.7408 22.5862 40.3013 23.5273 42.8123L23.4646 43.5028C23.4646 43.5028 23.4646 43.4401 23.5273 43.4401C24.0292 43.189 25.4095 42.059 25.4095 42.059L24.9076 41.3057L23.4646 41.6196C23.4646 41.6196 24.1547 40.9919 24.2174 40.7408C22.7117 38.9203 19.9511 39.6108 19.9511 39.6108C19.9511 39.6108 20.8922 39.0458 21.7079 38.7947L21.5196 38.4181C21.5196 38.4181 23.0881 38.167 23.1509 38.4809C23.1509 38.4809 24.7821 37.9787 26.2251 41.1802L26.2878 41.494L27.6054 41.1802C27.6054 41.1802 26.978 39.2969 26.6643 38.7947C26.4133 38.5436 25.5977 39.1086 25.5977 39.1086V37.9159C25.5977 37.9159 23.4646 37.1626 21.8961 37.4137C20.3276 37.7276 21.7706 36.9115 21.8961 36.7859C21.2687 36.7232 20.6413 36.6604 20.0139 36.6604C20.0139 36.6604 20.8922 36.6604 19.9511 36.6604C19.0101 36.7232 17.6298 38.2925 17.6298 38.2925C17.6298 38.2925 16.2495 38.4809 15.5594 38.9203C15.0575 39.2342 14.8065 40.0502 14.681 40.4269H14.8065C14.8692 40.6152 20.8295 44.1934 20.0139 47.0182Z" fill="#F2D7BF"/>
<path d="M27.6054 42.624C27.1035 42.6868 26.0996 43.3773 25.8487 43.6912C25.9114 44.5073 26.6643 44.9467 27.2289 45.6372C27.1662 46.1394 26.0369 46.7672 25.4722 47.2693C24.7194 47.4577 23.5901 46.1394 23.2764 45.7628C21.8334 47.2066 24.7821 48.8387 25.4095 48.1482C25.5977 48.5876 24.0292 49.027 22.8372 48.4621C22.398 49.4665 20.7668 50.2198 19.5747 50.5964C19.4493 51.2869 19.261 51.8519 19.0728 52.1658C19.0728 52.1658 18.069 54.4884 16.626 55.3673C17.818 55.0534 18.6964 54.614 19.1356 54.3629C19.9512 53.8607 22.5235 52.9191 23.0881 52.6052C23.6528 52.2913 24.3429 50.722 24.6566 50.4709C24.9703 50.2198 25.7859 49.2781 26.0996 48.8387C26.4761 48.3993 27.9191 46.8299 29.1739 45.3233C29.7385 44.6956 28.3583 42.4357 27.6054 42.624Z" fill="#F2D7BF"/>
<path d="M19.0728 52.1657C19.261 51.8518 19.4492 51.2241 19.5747 50.5963C18.8846 50.8474 18.3199 50.9102 18.1945 50.9102C17.9435 50.8474 16.2495 48.9014 16.2495 48.3364C16.2495 47.8342 18.3199 46.0765 16.626 46.4532C16.124 45.3232 15.8731 46.1393 15.8731 46.1393C15.8731 46.1393 15.4967 45.0721 15.4967 44.5699C16.0613 44.3188 19.1355 46.7043 19.1355 47.0182C19.1355 47.332 18.1945 47.2065 17.6925 47.5204C17.6298 47.9598 18.0062 49.7175 18.4454 49.7802C18.6336 49.843 19.1355 49.7175 19.8257 49.4664C20.0139 48.2109 20.0766 46.9554 20.0766 46.9554C20.8922 44.1305 14.932 40.5524 14.932 40.5524H14.8065C14.7438 40.6779 14.7438 40.8035 14.7438 40.8035C14.7438 40.8035 11.795 40.8662 12.1715 45.2605C12.2969 47.0182 12.6106 50.4708 11.2304 52.1029C10.9167 52.6051 8.97175 55.0533 13.3008 55.4927C14.5556 55.6811 15.6221 55.5555 16.5632 55.3044C18.069 54.4883 19.0728 52.1657 19.0728 52.1657Z" fill="#F2D7BF"/>
<path d="M18.3827 40.7407C18.1317 41.1174 18.5081 41.4312 18.8218 41.6196C19.1983 41.5568 20.5785 41.5568 22.7117 43.6911C22.8999 43.8794 23.2136 43.7539 23.3391 43.5028L23.4018 42.8123C22.4607 40.3013 18.3827 40.7407 18.3827 40.7407Z" fill="#F2D9BF"/>
<path d="M23.0881 38.4809C23.0254 38.167 21.4569 38.4181 21.4569 38.4181L21.6451 38.7947C21.8961 38.732 22.147 38.6692 22.3353 38.6692C22.5862 38.9203 23.7783 38.7947 24.2802 39.1714C24.7821 39.4853 26.0996 41.6196 26.0996 41.6196L26.2251 41.5568L26.1624 41.2429C24.7194 37.9159 23.0881 38.4809 23.0881 38.4809Z" fill="#F2D9BF"/>
<path d="M102.014 72.9441C102.014 72.9441 102.955 73.1952 103.332 74.8274C103.708 76.4595 102.642 80.4771 84.3218 86.8801C84.3218 86.8801 82.8788 87.4451 79.6791 86.8801C79.1145 87.194 75.9775 86.7545 75.2874 86.629C75.7265 87.0056 79.1772 87.9473 82.5024 87.8217C85.8276 87.6962 97.3717 85.5618 102.265 81.9837C110.484 75.9573 102.83 72.2536 101.512 71.9397C100.195 71.6259 101.512 74.1996 101.136 74.2624C101.136 74.3252 101.011 72.2536 102.014 72.9441Z" fill="#DBDDDE"/>
<path d="M15.6848 71.8142C15.6848 71.8142 15.2457 74.1369 11.6695 71.5631L7.77967 69.3032C7.40324 69.4288 7.3405 69.4288 7.08954 69.5543C9.03446 73.4464 14.932 75.0785 15.3711 74.8274C15.0574 74.5763 14.2418 73.0697 15.1829 73.6347C17.818 75.204 28.0445 81.7326 39.5886 75.7062C39.0239 75.3296 35.636 71.7514 33.8165 69.7426C33.7538 69.8682 31.7461 76.6479 15.6848 71.8142Z" fill="#DBDDDE"/>
<path d="M47.8702 21.5946C45.7998 21.0924 43.3529 26.2399 43.3529 26.2399C43.0392 27.1815 42.9138 27.872 42.9138 28.2487C43.1647 28.5625 43.4784 28.6881 43.6666 28.6253C43.7921 27.8092 44.3568 26.5537 44.9842 26.1143C45.2351 25.8632 45.8625 25.6121 46.5526 25.361C45.3606 23.98 47.8702 21.5946 47.8702 21.5946Z" fill="#DAB64A"/>
<path d="M61.8611 20.6528C63.1786 22.7244 63.4296 23.666 63.2414 24.8587C63.7433 24.6704 64.057 24.4193 64.2452 24.1682C64.6216 24.5449 65.249 25.9887 65.3745 26.5537C65.3745 26.6164 65.4372 26.6792 65.4372 26.8048C65.5627 26.2398 65.7509 25.4237 65.7509 24.4821C65.8137 23.0383 61.8611 20.6528 61.8611 20.6528Z" fill="#DAB64A"/>
<path d="M73.3424 37.0371C73.5306 37.1627 73.7188 37.2254 73.9698 37.351C75.0991 37.9159 76.4166 38.1043 77.1068 37.1627C75.2873 34.9655 68.3232 26.5537 67.5704 23.98C67.5704 23.98 69.3898 33.8356 73.3424 37.0371Z" fill="#DAB64A"/>
<path d="M70.6446 19.5229C70.6446 19.5229 76.4794 19.7113 78.2988 25.2354C78.2988 25.2354 80.6202 32.7056 84.9492 34.0239C84.9492 34.0239 77.8596 32.3917 76.4794 27.3698C75.0991 22.4106 74.6599 20.5901 70.6446 19.5229Z" fill="#DAB64A"/>
<path d="M55.7126 20.7157C52.4502 20.7785 50.9444 23.2267 50.4425 24.2939C51.1954 24.2311 52.0737 24.2311 52.9521 24.2311C52.8266 23.7917 52.7011 23.2895 52.7011 23.2895C52.2619 21.5318 55.7126 20.7157 55.7126 20.7157Z" fill="#DAB64A"/>
<path d="M80.9966 16.1331C80.9339 16.1331 80.8084 16.1331 80.6829 16.0076C80.2437 15.6309 77.8596 14.5638 76.9186 14.2499C75.9775 13.936 74.7227 13.4966 72.966 13.1827C71.2093 12.8688 69.7663 12.6805 68.0096 12.555C66.7548 12.4922 65.1235 12.3039 64.4961 12.2411C64.4334 12.3039 64.4961 12.4294 64.4961 12.555C64.9981 12.555 64.9981 12.6805 65.9392 12.8061C66.692 12.9316 69.1389 13.4966 70.3309 13.7477C75.2246 14.7521 78.0479 17.0747 78.2361 17.1375C78.738 17.5142 79.3027 17.7653 79.5536 18.3302C79.6791 18.5186 79.8046 18.6441 79.93 18.7697C80.8711 19.1463 81.875 19.3974 82.9415 19.2718C83.067 18.958 83.067 18.393 83.067 17.6397" fill="black"/>
<path d="M80.9966 16.1331C81.1848 16.0703 81.2476 15.8192 80.9339 15.5681C80.181 14.9404 78.4243 14.1243 77.546 13.8104C74.8482 12.806 71.7112 12.1783 70.2682 11.99C68.5742 11.8016 63.4296 11.4878 60.1044 11.425C59.226 10.1695 57.0302 10.5461 56.34 11.425C52.1365 12.4294 50.3798 13.6221 49.4387 14.0615C43.0393 15.1287 39.8395 17.3886 39.8395 17.3886C39.5258 17.2003 38.2083 16.0075 37.9574 14.8776C36.828 10.295 38.773 8.97678 39.0867 8.34903C39.4004 7.72129 42.0982 5.27308 43.5412 4.64533C44.9214 4.01758 47.1801 3.07596 51.1326 2.88764C55.0225 2.69931 62.5512 4.45701 62.8022 4.58255C63.9315 4.77088 65.1235 5.08475 66.2528 5.27308C66.5665 5.4614 75.0991 6.65412 75.9147 6.77967C76.6676 6.90522 79.6164 7.21909 80.8084 7.53296C82.0005 7.84684 83.1298 8.16071 83.5689 8.41181C84.0081 8.60013 85.0119 9.29065 85.4511 9.85563C85.8276 10.3578 86.3295 11.425 86.3922 12.2411C86.5177 12.9944 86.3922 14.1243 86.1413 14.752C85.5766 16.0703 84.1963 16.9492 83.067 17.7652C83.0043 17.6397 81.3103 17.3886 80.9966 16.1331Z" fill="#003767"/>
<path d="M118.891 64.4067C116.068 65.4111 113.496 65.3484 113.496 65.3484C113.496 65.3484 112.241 66.1644 112.492 65.9761C112.743 65.7878 110.61 66.7922 109.606 66.9177C108.477 67.4199 106.281 67.4199 106.281 67.4199C106.281 67.4199 100.885 69.7426 100.195 69.7426C107.222 71.4375 107.912 74.7018 108.037 76.3339C108.351 80.0376 106.03 81.4187 105.528 82.1092C106.155 83.1136 106.783 84.0552 107.473 84.8713C114.625 79.3471 118.954 72.2536 118.954 64.5323C118.891 64.4695 118.891 64.4067 118.891 64.4067Z" fill="url(#paint1_linear)"/>
<path d="M28.6719 80.2888C33.1264 85.248 39.5886 89.3911 47.3683 92.1532C49.5014 90.3955 56.0263 85.5619 56.0263 85.5619C56.0263 85.5619 47.4938 81.0421 42.5374 77.5895C39.1494 79.4099 34.0048 80.6027 28.6719 80.2888Z" fill="url(#paint2_linear)"/>
<path d="M40.6552 44.2562C39.1494 40.3641 42.9138 39.9875 42.9138 39.9875C42.7883 39.6108 42.7256 39.1714 42.5374 38.8575C36.0752 41.808 30.8678 45.8255 27.2917 50.4081C27.2289 50.4709 27.2289 50.5336 27.2289 50.5336C28.1073 50.2825 30.9933 49.7176 30.9933 49.7176C30.9933 49.7176 35.3223 44.6956 40.6552 44.2562Z" fill="url(#paint3_linear)"/>
<path d="M91.976 36.2837C89.09 39.7991 83.8826 41.0546 83.8826 41.0546L84.3845 41.8706C84.3845 41.8706 85.953 41.3684 86.8941 41.2429C87.8352 41.1173 90.1566 41.3684 91.4114 41.9962C91.6623 41.4312 95.4267 39.0458 100.195 39.6735C97.6853 38.3553 94.9248 37.2253 91.976 36.2837Z" fill="url(#paint4_linear)"/>
<defs>
<linearGradient id="paint0_linear" x1="73.1794" y1="26.8386" x2="73.1794" y2="44.7147" gradientUnits="userSpaceOnUse">
<stop stop-color="#B3A191"/>
<stop offset="0.3576" stop-color="#B6A392"/>
<stop offset="0.5624" stop-color="#BDA997"/>
<stop offset="0.7286" stop-color="#C9B4A0"/>
<stop offset="0.8732" stop-color="#DBC3AD"/>
<stop offset="1" stop-color="#F2D9BF"/>
</linearGradient>
<linearGradient id="paint1_linear" x1="100.125" y1="74.6401" x2="118.905" y2="74.6401" gradientUnits="userSpaceOnUse">
<stop stop-color="white"/>
<stop offset="1" stop-color="#BDBEC0"/>
</linearGradient>
<linearGradient id="paint2_linear" x1="28.7027" y1="84.903" x2="56.0508" y2="84.903" gradientUnits="userSpaceOnUse">
<stop stop-color="#BDBEC0"/>
<stop offset="1" stop-color="white"/>
</linearGradient>
<linearGradient id="paint3_linear" x1="27.2514" y1="44.6962" x2="42.9171" y2="44.6962" gradientUnits="userSpaceOnUse">
<stop stop-color="#B9BABC"/>
<stop offset="1" stop-color="#E3E4E5"/>
</linearGradient>
<linearGradient id="paint4_linear" x1="83.9299" y1="39.1449" x2="100.235" y2="39.1449" gradientUnits="userSpaceOnUse">
<stop stop-color="#ECEDED"/>
<stop offset="1" stop-color="#D1D2D3"/>
</linearGradient>
</defs>
</svg>
